<?xml version="1.0" encoding="UTF-8"?>
<svg id="Calque_1" data-name="Calque 1" xmlns="http://www.w3.org/2000/svg" viewBox="0 0 50 50">
  <defs>
    <style>
      .cls-1 {
        fill: #548e56;
      }
    </style>
  </defs>
  <path class="cls-1" d="M14.81,23.25l3.16,1.31c-.36.9-.64,1.83-.85,2.77l-.12.55,4.54,4.54.55-.12c.95-.21,1.87-.49,2.77-.85l1.31,3.16c.04.1.16.15.27.11.03-.01.05-.03.07-.05l1.98-1.98c.65-.65,1-1.56.95-2.48l-.07-1.27c3.67-2.71,7.39-7.47,8.4-15.77.1-.75-.42-1.43-1.16-1.54-.12-.02-.24-.02-.37,0-8.3,1.02-13.05,4.74-15.77,8.4l-1.27-.07c-.92-.05-1.82.29-2.48.94l-1.98,1.98c-.09.07-.1.2-.02.29.02.03.05.05.09.06ZM27.53,18.41c.96-.96,2.52-.95,3.47,0,.96.96.95,2.52,0,3.47-.96.95-2.51.95-3.47,0-.96-.96-.96-2.51,0-3.47,0,0,0,0,0,0Z"/>
  <path class="cls-1" d="M14.21,32.78c-.53-.18-1.09-.23-1.64-.13-.1.02-.2,0-.27-.08-.09-.09-.11-.22-.06-.34.58-1.25,2.12-3.76,4.91-1.73.06.05.06.14.01.2,0,0,0,0-.01.01-.76.6-1.19,1.52-1.15,2.48,0,.12.1.21.21.21.96.04,1.88-.38,2.48-1.13.05-.06.14-.07.2-.02,0,0,.01.01.02.02.39.46,1.45,1.97.27,3.42-.52.62-1.25,1.01-2.06,1.09-1.15.12-3.26.5-4.13,1.48-.11.13-.29.14-.42.04-.04-.04-.08-.09-.09-.14-.31-1.04-.78-3.37,1.72-5.38Z"/>
</svg>