<?xml version="1.0" encoding="UTF-8"?>
<svg id="Calque_1" data-name="Calque 1" xmlns="http://www.w3.org/2000/svg" viewBox="0 0 50 50">
  <defs>
    <style>
      .cls-1 {
        fill: #4e96ba;
        fill-rule: evenodd;
      }
    </style>
  </defs>
  <path class="cls-1" d="M13.98,37.07c-.7.7-1.84.7-2.55,0-.7-.7-.7-1.84,0-2.55l5.07-5.07c-1.26-1.77-2-3.93-2-6.26,0-5.96,4.84-10.8,10.8-10.8s10.8,4.84,10.8,10.8-4.84,10.8-10.8,10.8c-2.33,0-4.49-.74-6.26-2l-5.07,5.07ZM32.51,23.2c0,3.97-3.23,7.2-7.2,7.2s-7.2-3.23-7.2-7.2,3.23-7.2,7.2-7.2,7.2,3.23,7.2,7.2Z"/>
</svg>