<?xml version="1.0" encoding="UTF-8"?>
<svg id="Calque_1" data-name="Calque 1" xmlns="http://www.w3.org/2000/svg" viewBox="0 0 50 50">
  <defs>
    <style>
      .cls-1 {
        fill: #fff;
      }

      .cls-2 {
        fill: #4e96ba;
      }

      .cls-3 {
        fill: #cbcbcb;
      }
    </style>
  </defs>
  <path class="cls-2" d="M15.84,40.39c-.33-.19-.76-.08-.95.26l-1.46,2.53c-.2.33-.08.76.26.95.11.07.23.1.35.1.24,0,.47-.12.6-.35l1.46-2.53c.19-.34.08-.76-.25-.96Z"/>
  <path class="cls-2" d="M22.76,40.39c-.33-.19-.76-.08-.95.26l-1.46,2.53c-.2.33-.08.76.26.95.11.07.23.1.35.1.24,0,.47-.12.6-.35l1.46-2.53c.19-.34.08-.76-.26-.96Z"/>
  <path class="cls-2" d="M29.68,40.39c-.33-.19-.76-.08-.95.26l-1.46,2.53c-.2.33-.08.76.26.95.11.07.23.1.35.1.24,0,.47-.12.6-.35l1.46-2.53c.19-.34.08-.76-.26-.96Z"/>
  <g>
    <path class="cls-1" d="M36.64,14.36c-1.9-5.16-6.8-8.59-12.34-8.59-7.03,0-12.79,5.55-13.14,12.49-3.5.34-6.25,3.3-6.25,6.89,0,3.82,3.11,6.93,6.93,6.93h24.92c.08,0,.15-.01.22-.04,4.55-.39,8.09-4.24,8.09-8.83,0-4.74-3.75-8.63-8.44-8.86Z"/>
    <path class="cls-3" d="M36.72,30.68s-.08,0-.12.02H11.84c-3.05,0-5.54-2.48-5.54-5.54s2.48-5.53,5.54-5.53c.38,0,.7-.31.7-.7,0-6.49,5.28-11.76,11.76-11.76,5.1,0,9.59,3.25,11.18,8.1.09.29.36.48.66.48h.07c4.12,0,7.48,3.35,7.48,7.47s-3.06,7.2-6.97,7.46Z"/>
  </g>
  <path class="cls-2" d="M18.97,33.61c-.33-.19-.76-.08-.95.26l-1.46,2.53c-.2.33-.08.76.26.95.11.07.23.1.35.1.24,0,.47-.12.6-.35l1.46-2.53c.19-.34.08-.76-.25-.96Z"/>
  <path class="cls-2" d="M25.89,33.61c-.33-.19-.76-.08-.95.26l-1.46,2.53c-.2.33-.08.76.26.95.11.07.23.1.35.1.24,0,.47-.12.6-.35l1.46-2.53c.19-.34.08-.76-.26-.96Z"/>
  <path class="cls-2" d="M32.81,33.61c-.33-.19-.76-.08-.95.26l-1.46,2.53c-.2.33-.08.76.26.95.11.07.23.1.35.1.24,0,.47-.12.6-.35l1.46-2.53c.19-.34.08-.76-.26-.96Z"/>
</svg>