<?xml version="1.0" encoding="UTF-8"?>
<svg id="Calque_1" data-name="Calque 1" xmlns="http://www.w3.org/2000/svg" viewBox="0 0 50 50">
  <defs>
    <style>
      .cls-1 {
        fill: #e0d269;
      }

      .cls-2 {
        fill: #fff;
      }

      .cls-3 {
        fill: #c1deea;
      }
    </style>
  </defs>
  <g>
    <path class="cls-1" d="M36.41,16.6c-3.61-1.05-7.39,1.01-8.43,4.59-1.04,3.58,1.05,7.34,4.66,8.39s7.39-1.01,8.43-4.59-1.05-7.34-4.66-8.39Z"/>
    <path class="cls-1" d="M25.32,20.41c.1-.36-.11-.74-.47-.84l-5.52-1.6c-.36-.11-.74.1-.85.46s.11.74.47.84l5.52,1.6c.36.11.74-.1.85-.46Z"/>
    <path class="cls-1" d="M48.76,26.51l-5.52-1.6c-.36-.11-.74.1-.85.46s.11.74.47.84l5.52,1.6c.36.11.74-.1.85-.46s-.11-.74-.47-.84Z"/>
    <path class="cls-1" d="M35.84,13.57c.36.11.74-.1.85-.46l1.59-5.47c.1-.36-.11-.74-.47-.84s-.74.1-.85.46l-1.59,5.47c-.1.36.1.74.47.84Z"/>
    <path class="cls-1" d="M31.88,32.22c-.36-.11-.74.1-.85.46l-1.59,5.47c-.1.36.1.74.47.84s.74-.1.85-.46l1.59-5.47c.11-.36-.11-.74-.47-.84Z"/>
    <path class="cls-1" d="M27.62,14.08c.09.16.24.28.41.33s.36.03.52-.06c.33-.18.45-.59.27-.92l-2.78-5c-.18-.33-.6-.45-.93-.27-.33.18-.45.59-.27.92l2.78,5Z"/>
    <path class="cls-1" d="M38.76,31.31c-.18-.33-.6-.45-.93-.27-.33.18-.45.59-.27.92l2.78,5c.09.17.24.27.41.32s.35.03.52-.05c.33-.18.45-.59.27-.92l-2.78-5Z"/>
    <path class="cls-1" d="M41.98,18.46c.17.05.36.03.52-.06l5.03-2.74c.33-.18.45-.59.27-.92-.18-.33-.6-.45-.93-.27l-5.03,2.74c-.33.18-.45.59-.27.92.09.16.24.28.41.33Z"/>
    <path class="cls-1" d="M25.21,27.39l-5.03,2.74c-.33.18-.45.59-.27.92.09.17.24.28.41.33s.36.03.52-.05l5.03-2.74c.33-.18.45-.59.27-.92-.18-.33-.6-.45-.93-.27Z"/>
  </g>
  <path class="cls-2" d="M34.41,24.42c-2.02-5.47-7.22-9.11-13.09-9.11-7.46,0-13.58,5.89-13.94,13.26-3.72.36-6.63,3.5-6.63,7.31,0,4.06,3.3,7.35,7.35,7.35h26.45c.08,0,.16-.01.24-.04,4.83-.42,8.59-4.5,8.59-9.37,0-5.04-3.98-9.16-8.96-9.4Z"/>
  <path class="cls-3" d="M34.49,41.74s-.09,0-.13.02H8.09c-3.24,0-5.87-2.64-5.87-5.87s2.64-5.87,5.87-5.87c.41,0,.74-.33.74-.74,0-6.88,5.6-12.48,12.48-12.48,5.41,0,10.18,3.45,11.86,8.6.1.3.38.51.7.51h.07c4.37,0,7.93,3.56,7.93,7.93s-3.25,7.64-7.4,7.92Z"/>
</svg>