<?xml version="1.0" encoding="UTF-8"?>
<svg id="Calque_1" data-name="Calque 1" xmlns="http://www.w3.org/2000/svg" viewBox="0 0 50 50">
  <defs>
    <style>
      .cls-1 {
        fill: #6d6d6d;
      }

      .cls-2 {
        fill: #fff;
      }
    </style>
  </defs>
  <path class="cls-2" d="M42.6,23.06c-1.48-3.94-5.23-6.55-9.47-6.55-1.92,0-3.77.54-5.38,1.55-2.17-2.97-5.66-4.82-9.49-4.82-6.28,0-11.43,4.96-11.74,11.16-3.13.31-5.58,2.95-5.58,6.16,0,3.41,2.77,6.19,6.19,6.19h35.51c.07,0,.13-.01.19-.03,3.52-.31,6.25-3.28,6.25-6.83,0-3.65-2.87-6.64-6.47-6.84Z"/>
  <path class="cls-1" d="M7.12,35.51c-2.73,0-4.94-2.22-4.94-4.95s2.22-4.94,4.94-4.94c.34,0,.62-.28.62-.62,0-5.79,4.71-10.51,10.51-10.51,3.61,0,6.87,1.82,8.78,4.73,0,.01.01.03.02.04.31.47.58.97.81,1.48,0,.01.01.03.02.05.04.08.07.16.1.24.02.05.04.11.07.16.02.06.04.11.06.17.04.12.09.24.13.36.03.09.09.18.16.25,0,0,0,0,.01.01.02.02.04.03.06.05.1.07.22.12.35.12,0,0,.01,0,.02,0h.06c3.68,0,6.68,3,6.68,6.68s-2.74,6.43-6.23,6.66c-.04,0-.07,0-.11.02H7.12Z"/>
  <path class="cls-1" d="M42.59,35.49s-.07,0-.1.01h-9.34s.05-.03.07-.05c.09-.06.18-.12.27-.18.04-.03.07-.05.11-.08.11-.08.22-.16.32-.25.01,0,.02-.01.03-.02.11-.09.22-.19.32-.28.03-.03.07-.06.1-.1.08-.07.15-.15.22-.22.03-.03.06-.07.09-.1.1-.11.19-.21.28-.32.01-.02.03-.04.05-.06.08-.09.15-.19.23-.28.03-.04.06-.08.08-.12.06-.09.12-.18.18-.26.02-.04.05-.07.07-.1.08-.12.15-.24.22-.37.01-.03.03-.06.05-.09.05-.1.11-.2.16-.3.02-.04.04-.08.06-.13.05-.1.09-.21.14-.31.01-.04.03-.07.04-.1.05-.13.1-.27.15-.41.01-.04.02-.08.04-.11.04-.11.07-.21.1-.32.01-.05.02-.09.04-.14.03-.12.06-.25.09-.37,0-.02.01-.05.01-.07.03-.15.05-.29.07-.44,0-.04.01-.08.01-.13.01-.11.02-.23.03-.34,0-.05,0-.09.01-.14,0-.16.01-.31.01-.47,0-4.17-3.24-7.6-7.33-7.9-.07,0-.14-.01-.21-.01-.23-.64-.52-1.24-.85-1.81,1.41-.88,3.03-1.35,4.7-1.35,3.85,0,7.24,2.46,8.44,6.11.08.26.32.43.59.43h.05c3.09,0,5.61,2.51,5.61,5.61,0,2.94-2.3,5.4-5.23,5.59Z"/>
</svg>