<?xml version="1.0" encoding="UTF-8"?>
<svg id="Calque_1" data-name="Calque 1" xmlns="http://www.w3.org/2000/svg" viewBox="0 0 50 50">
  <defs>
    <style>
      .cls-1 {
        fill: #e0d269;
      }
    </style>
  </defs>
  <path class="cls-1" d="M25.21,15.89c-5.06,0-9.18,4.08-9.18,9.1s4.12,9.1,9.18,9.1,9.18-4.08,9.18-9.1-4.12-9.1-9.18-9.1Z"/>
  <path class="cls-1" d="M13.02,24.99c0-.51-.42-.91-.92-.91h-7.75c-.51,0-.92.41-.92.91s.41.91.92.91h7.75c.51,0,.92-.41.92-.91Z"/>
  <path class="cls-1" d="M45.65,24.08h-7.75c-.51,0-.92.41-.92.91s.41.91.92.91h7.75c.51,0,.92-.41.92-.91s-.41-.91-.92-.91Z"/>
  <path class="cls-1" d="M25.21,12.19c.51,0,.92-.41.92-.91V3.6c0-.5-.41-.91-.92-.91s-.92.41-.92.91v7.68c0,.51.41.91.92.91Z"/>
  <path class="cls-1" d="M25.21,37.8c-.51,0-.92.41-.92.92v7.68c0,.5.41.91.92.91s.92-.41.92-.91v-7.68c0-.51-.41-.92-.92-.92Z"/>
  <path class="cls-1" d="M15.51,15.94c.18.18.42.27.65.27s.47-.09.66-.27c.36-.36.36-.94,0-1.29l-5.47-5.43c-.36-.36-.94-.36-1.31,0-.36.36-.36.94,0,1.29l5.47,5.43Z"/>
  <path class="cls-1" d="M34.51,34.04c-.36-.36-.94-.36-1.3,0-.36.36-.36.93,0,1.29l5.47,5.43c.18.18.42.26.66.26s.47-.09.65-.26c.36-.36.36-.93,0-1.29l-5.48-5.43Z"/>
  <path class="cls-1" d="M33.85,16.21c.24,0,.47-.09.65-.27l5.48-5.43c.36-.36.36-.94,0-1.29-.36-.36-.94-.36-1.3,0l-5.48,5.43c-.36.36-.36.94,0,1.29.18.18.41.27.65.27Z"/>
  <path class="cls-1" d="M15.51,34.05l-5.48,5.43c-.36.36-.36.93,0,1.29.18.18.42.27.65.27s.47-.09.65-.27l5.48-5.43c.36-.36.36-.94,0-1.29-.36-.36-.95-.36-1.31,0Z"/>
</svg>